<svg width="128" height="128" viewBox="0 0 1129 881" fill="none" xmlns="http://www.w3.org/2000/svg">
<rect x="4.49506" y="0.281128" width="1120" height="872.05" rx="100" fill="white" shape-rendering="crispEdges"/>
<path d="M425.906 51.6974C420.869 35.5001 409.746 34.3946 396 51.6974C57.5001 346.5 31.6929 755.628 82 825C82 825 85.5 829.5 89.0001 825C101.071 772.006 160.907 520.081 328.183 370.569C445.507 501.391 817.5 825 1080 825C1084.5 825 1094.5 825 1080 811.5C925.975 684.427 558 394 425.906 51.6974Z" fill="black"/>
<path d="M938.337 339C938.337 339 334.5 582.186 306.5 604C278.5 625.814 312 712.5 347.5 712.5C383 712.5 938.337 358 944.337 348.5C950.337 339 938.337 339 938.337 339Z" fill="#FF1E1E"/>
<ellipse cx="332.5" cy="656.5" rx="58.5" ry="59.5" fill="#FF1E1E"/>
</svg>
